<svg id="visual" viewBox="0 0 1920 700" width="1920" height="700" xmlns="http://www.w3.org/2000/svg" xmlns:xlink="http://www.w3.org/1999/xlink" version="1.1"><rect x="0" y="0" width="1920" height="700" fill="#1a1a1b"></rect><defs><linearGradient id="grad1_0" x1="63.5%" y1="0%" x2="100%" y2="100%"><stop offset="-4.857142857142854%" stop-color="#1a1a1b" stop-opacity="1"></stop><stop offset="104.85714285714286%" stop-color="#1a1a1b" stop-opacity="1"></stop></linearGradient></defs><defs><linearGradient id="grad2_0" x1="0%" y1="0%" x2="36.5%" y2="100%"><stop offset="-4.857142857142854%" stop-color="#1a1a1b" stop-opacity="1"></stop><stop offset="104.85714285714286%" stop-color="#1a1a1b" stop-opacity="1"></stop></linearGradient></defs><g transform="translate(1920, 0)"><path d="M0 455C-72 430.7 -143.9 406.4 -214.5 371.5C-285.1 336.6 -354.2 291.2 -394 227.5C-433.9 163.8 -444.4 81.9 -455 0L0 0Z" fill="#72d6e3"></path></g><g transform="translate(0, 700)"><path d="M0 -455C73.8 -433.9 147.7 -412.9 218 -377.6C288.3 -342.3 355.1 -292.8 394 -227.5C433 -162.2 444 -81.1 455 0L0 0Z" fill="#72d6e3"></path></g></svg>